<svg xmlns="http://www.w3.org/2000/svg" viewBox="0 0 100 112" fill="currentColor" aria-label="Ottawa Weekly maple leaf logo">
  <path d="M50 4
    C50 4 47.5 18 46 21
    C44.5 24 36 17 36 17
    C36 17 39 27 37 31
    C35 35 24 31 24 31
    C24 31 30 40 28 44
    C26 48 14 46 14 46
    C14 46 21 54 21 58
    C21 62 8 62 8 62
    C8 62 22 68 24 72
    C26 76 18 88 18 88
    C18 88 32 83 40 86
    L40 96
    L44 108
    L56 108
    L60 96
    L60 86
    C68 83 82 88 82 88
    C82 88 74 76 76 72
    C78 68 92 62 92 62
    C92 62 79 62 79 58
    C79 54 86 46 86 46
    C86 46 74 48 72 44
    C70 40 76 31 76 31
    C76 31 65 35 63 31
    C61 27 64 17 64 17
    C64 17 55.5 24 54 21
    C52.5 18 50 4 50 4 Z"/>
</svg>
